<svg width="16" height="11" viewBox="0 0 16 11" fill="none" xmlns="http://www.w3.org/2000/svg">
<path fill-rule="evenodd" clip-rule="evenodd" d="M10.3835 1.69361H14.4534V0.527913H10.3835V1.69361ZM12.3896 4.03408C11.4817 4.03408 10.7922 4.59668 10.7258 5.63598H13.983C13.7623 4.40254 13.2143 4.03408 12.3896 4.03408V4.03408ZM12.5168 8.85465C13.3551 8.85465 13.9702 8.32509 14.0958 7.87897H15.8588C15.3549 9.49243 14.3142 10.3987 12.4456 10.3987C10.0611 10.3987 8.7229 8.70263 8.7229 6.45221C8.7229 1.15248 16.3699 0.962468 15.986 6.94707H10.7259C10.777 8.16233 11.2786 8.85465 12.5168 8.85465V8.85465ZM4.58342 8.62167C5.5457 8.62167 6.21921 8.25156 6.21921 7.25275C6.21921 6.21676 5.62409 5.76733 4.62501 5.76733H2.21411V8.62167H4.58342ZM4.45623 4.20921C5.25693 4.20921 5.80966 3.83662 5.80966 2.97082C5.80966 2.05875 5.16654 1.77704 4.28745 1.77704H2.21411V4.20921H4.45623V4.20921ZM4.73861 0C6.63517 0 7.95341 0.627045 7.95341 2.57758C7.95341 3.54334 7.56546 4.26292 6.58558 4.74786C7.83982 5.12046 8.43335 6.09861 8.43335 7.3841C8.43335 9.42468 6.81515 10.3987 4.87939 10.3987H0V0H4.73861Z" fill="white"/>
</svg>
