<svg width="103" height="80" viewBox="0 0 103 80" fill="none" xmlns="http://www.w3.org/2000/svg">
<mask id="mask0" mask-type="alpha" maskUnits="userSpaceOnUse" x="0" y="0" width="103" height="69">
<rect x="1.5" y="1.5" width="100" height="66" fill="white" stroke="black" stroke-width="3"/>
</mask>
<g mask="url(#mask0)">
<rect width="103" height="69" fill="white"/>
<path d="M40 40L1 78H113V40L80 21L62 53L40 40Z" fill="#A5A5A5"/>
<circle cx="9.5" cy="9.5" r="27.5" fill="#D9D9D9"/>
<rect x="1.5" y="1.5" width="100" height="66" stroke="black" stroke-width="3"/>
</g>
<rect x="63.2139" y="45.9795" width="7.57358" height="42.7747" transform="rotate(-37.8964 63.2139 45.9795)" fill="black"/>
<rect x="0.174887" y="-1.40336" width="5.57358" height="13" transform="matrix(0.789122 -0.614236 -0.614236 -0.789122 62.3888 43.5761)" fill="white" stroke="black" stroke-width="2"/>
<line x1="56.0637" y1="25.3511" x2="53.0637" y2="17.3511" stroke="black" stroke-width="2"/>
<line x1="52.8137" y1="39.5812" x2="47.8137" y2="46.5812" stroke="black" stroke-width="2"/>
<line x1="49" y1="35" x2="43" y2="35" stroke="black" stroke-width="2"/>
<line x1="63.1056" y1="26.5528" x2="66.1056" y2="20.5528" stroke="black" stroke-width="2"/>
</svg>
