<svg width="12" height="12" viewBox="0 0 12 12" fill="none" xmlns="http://www.w3.org/2000/svg">
<path fill-rule="evenodd" clip-rule="evenodd" d="M11.9992 11.9999H9.59922V7.80046C9.59922 6.64846 9.09102 6.00586 8.17962 6.00586C7.18782 6.00586 6.59922 6.67546 6.59922 7.80046V11.9999H4.19922V4.19986H6.59922V5.07706C6.59922 5.07706 7.35222 3.75586 9.04902 3.75586C10.7464 3.75586 11.9992 4.79146 11.9992 6.93466C11.9992 9.07726 11.9992 11.9999 11.9992 11.9999ZM1.4652 2.9526C0.6558 2.9526 0 2.2914 0 1.476C0 0.6612 0.6558 0 1.4652 0C2.274 0 2.9298 0.6612 2.9298 1.476C2.9304 2.2914 2.274 2.9526 1.4652 2.9526ZM0 12.0001H3V4.20007H0V12.0001Z" fill="white"/>
</svg>
