<svg width="112" height="77" viewBox="0 0 112 77" fill="none" xmlns="http://www.w3.org/2000/svg">
<rect x="101.5" y="67.5" width="100" height="66" transform="rotate(-180 101.5 67.5)" fill="white" stroke="black" stroke-width="3"/>
<rect x="101.5" y="16.5" width="100" height="15" transform="rotate(-180 101.5 16.5)" fill="#DADADA" stroke="black" stroke-width="3"/>
<line x1="9" y1="26" x2="42" y2="26" stroke="black" stroke-width="2"/>
<line x1="9" y1="38" x2="31" y2="38" stroke="black" stroke-width="2"/>
<line x1="9" y1="32" x2="25" y2="32" stroke="black" stroke-width="2"/>
<line x1="9" y1="44" x2="28" y2="44" stroke="black" stroke-width="2"/>
<line x1="9" y1="56" x2="47" y2="56" stroke="black" stroke-width="2"/>
<line x1="9" y1="50" x2="40" y2="50" stroke="black" stroke-width="2"/>
<circle cx="86" cy="51" r="26" fill="black"/>
<mask id="path-10-inside-1" fill="white">
<path fill-rule="evenodd" clip-rule="evenodd" d="M86 35C88.019 35 89.7023 35.4445 90.8308 36.189C91.9012 36.8953 92.5 37.8747 92.5 39.2142C92.5 41.8143 90.0011 43.9999 86 43.9999V46.9999C88.019 46.9999 89.7023 47.4444 90.8308 48.1889C91.9012 48.8952 92.5 49.8747 92.5 51.2142C92.5 52.5537 91.9012 53.5332 90.8308 54.2394C89.7023 54.9839 88.019 55.4284 86 55.4284V58.4284C88.3993 58.4284 90.716 57.9093 92.4829 56.7435C94.3079 55.5394 95.5 53.6617 95.5 51.2142C95.5 48.7666 94.3079 46.889 92.4829 45.6849C92.3184 45.5763 92.149 45.4733 91.9753 45.3759C94.0712 44.0578 95.5 41.9672 95.5 39.2142C95.5 36.7667 94.3079 34.889 92.4829 33.6849C90.716 32.5191 88.3993 32 86 32V35Z"/>
</mask>
<path fill-rule="evenodd" clip-rule="evenodd" d="M86 35C88.019 35 89.7023 35.4445 90.8308 36.189C91.9012 36.8953 92.5 37.8747 92.5 39.2142C92.5 41.8143 90.0011 43.9999 86 43.9999V46.9999C88.019 46.9999 89.7023 47.4444 90.8308 48.1889C91.9012 48.8952 92.5 49.8747 92.5 51.2142C92.5 52.5537 91.9012 53.5332 90.8308 54.2394C89.7023 54.9839 88.019 55.4284 86 55.4284V58.4284C88.3993 58.4284 90.716 57.9093 92.4829 56.7435C94.3079 55.5394 95.5 53.6617 95.5 51.2142C95.5 48.7666 94.3079 46.889 92.4829 45.6849C92.3184 45.5763 92.149 45.4733 91.9753 45.3759C94.0712 44.0578 95.5 41.9672 95.5 39.2142C95.5 36.7667 94.3079 34.889 92.4829 33.6849C90.716 32.5191 88.3993 32 86 32V35Z" fill="#C4C4C4"/>
<path d="M90.8308 36.189L89.1786 38.6931L90.8308 36.189ZM86 35H83V38H86V35ZM86 43.9999V40.9999H83V43.9999H86ZM86 46.9999H83V49.9999L86 49.9999L86 46.9999ZM90.8308 48.1889L92.4829 45.6849L92.4829 45.6849L90.8308 48.1889ZM90.8308 54.2394L92.4829 56.7435L92.4829 56.7435L90.8308 54.2394ZM86 55.4284V52.4284H83V55.4284H86ZM86 58.4284H83V61.4284H86V58.4284ZM92.4829 56.7435L94.1351 59.2476L94.1351 59.2476L92.4829 56.7435ZM92.4829 45.6849L90.8308 48.1889L90.8308 48.1889L92.4829 45.6849ZM91.9753 45.3759L90.3782 42.8363L86.1062 45.523L90.5075 47.9922L91.9753 45.3759ZM92.4829 33.6849L94.1351 31.1809L94.1351 31.1809L92.4829 33.6849ZM86 32V29H83V32H86ZM92.4829 33.6849C90.7164 32.5194 88.4 32 86 32V38C87.638 38 88.6882 38.3695 89.1786 38.6931L92.4829 33.6849ZM95.5 39.2142C95.5 36.7708 94.3117 34.8915 92.4829 33.6849L89.1786 38.6931C89.3933 38.8347 89.4475 38.9269 89.4564 38.9425C89.4596 38.9483 89.5 39.0097 89.5 39.2142H95.5ZM86 46.9999C90.9004 46.9999 95.5 44.1386 95.5 39.2142H89.5C89.5 39.4829 89.3905 39.8407 88.9132 40.2105C88.4121 40.5987 87.4709 40.9999 86 40.9999V46.9999ZM89 46.9999V43.9999H83V46.9999H89ZM92.4829 45.6849C90.7164 44.5193 88.4 43.9999 86 43.9999L86 49.9999C87.638 49.9999 88.6882 50.3695 89.1786 50.693L92.4829 45.6849ZM95.5 51.2142C95.5 48.7708 94.3117 46.8914 92.4829 45.6849L89.1786 50.693C89.3933 50.8346 89.4475 50.9268 89.4564 50.9425C89.4596 50.9483 89.5 51.0097 89.5 51.2142H95.5ZM92.4829 56.7435C94.3117 55.5369 95.5 53.6576 95.5 51.2142H89.5C89.5 51.4187 89.4596 51.4801 89.4564 51.4859C89.4475 51.5015 89.3933 51.5937 89.1786 51.7353L92.4829 56.7435ZM86 58.4284C88.4 58.4284 90.7164 57.909 92.4829 56.7435L89.1786 51.7353C88.6882 52.0589 87.638 52.4284 86 52.4284V58.4284ZM89 58.4284V55.4284H83V58.4284H89ZM90.8308 54.2394C89.7027 54.9837 88.0196 55.4284 86 55.4284V61.4284C88.779 61.4284 91.7292 60.8349 94.1351 59.2476L90.8308 54.2394ZM92.5 51.2142C92.5 52.5515 91.9032 53.5318 90.8308 54.2394L94.1351 59.2476C96.7126 57.547 98.5 54.772 98.5 51.2142H92.5ZM90.8308 48.1889C91.9032 48.8965 92.5 49.8769 92.5 51.2142H98.5C98.5 47.6564 96.7126 44.8814 94.1351 43.1808L90.8308 48.1889ZM90.5075 47.9922C90.6204 48.0556 90.7281 48.1212 90.8308 48.1889L94.1351 43.1808C93.9086 43.0314 93.6777 42.8911 93.4431 42.7595L90.5075 47.9922ZM92.5 39.2142C92.5 40.7771 91.7444 41.9771 90.3782 42.8363L93.5724 47.9154C96.3979 46.1384 98.5 43.1574 98.5 39.2142H92.5ZM90.8308 36.189C91.9032 36.8966 92.5 37.877 92.5 39.2142H98.5C98.5 35.6564 96.7126 32.8815 94.1351 31.1809L90.8308 36.189ZM86 35C88.0196 35 89.7027 35.4447 90.8308 36.189L94.1351 31.1809C91.7292 29.5935 88.779 29 86 29V35ZM89 35V32H83V35H89Z" fill="white" mask="url(#path-10-inside-1)"/>
<line x1="82.5" y1="44" x2="82.5" y2="70" stroke="white" stroke-width="3"/>
</svg>
